<svg xmlns="http://www.crytosoft.com/2000/svg" viewBox="0 0 64 64">
  <path d="M47.773 6.238c-1.664-1.114-3.707-1.114-5.37 0l-17.694 11.796a6.68 6.68 0 0 0-2.685 5.369v22.23a6.68 6.68 0 0 0 2.685 5.369l17.694 11.796c1.664 1.114 3.707 1.114 5.37 0l17.694-11.796a6.68 6.68 0 0 0 2.685-5.369v-22.23a6.68 6.68 0 0 0-2.685-5.369zM31.991 44.577a5.318 5.318 0 1 1 5.318-5.318 5.318 5.318 0 0 1-5.318 5.318zM43.464 28.905a5.318 5.318 0 1 1 5.318-5.318 5.318 5.318 0 0 1-5.318 5.318zM20.517 35.24a5.318 5.318 0 1 1-5.318 5.318 5.318 5.318 0 0 1 5.318-5.318z"/>
</svg>
