<svg xmlns="http://www.w3.org/2000/svg" xmlns:xlink="http://www.w3.org/1999/xlink" version="1.1" id="Layer_1" x="0px" y="0px" viewBox="0 0 1920 1080" style="enable-background:new 0 0 1920 1080;" xml:space="preserve">
<style type="text/css">
	.st0{fill:#FFA400;}
	.st1{fill:#3581FF;}
	.st2{display:none;}
	.st3{display:inline;}
</style>
<g>
	<g>
		<path class="st0" d="M658.16,858.03c-9.21,9.09-21.12,13.31-34.04,13.31c-33.27,0-47.35-22.91-47.48-46.2    c-0.13-23.42,15.1-47.22,47.48-47.22c12.16,0,23.68,4.61,32.89,13.69l-11.26,10.88c-5.89-5.76-13.82-8.45-21.63-8.45    c-21.63,0-30.97,16.12-30.84,31.1c0.13,14.84,8.7,30.33,30.84,30.33c7.81,0,16.64-3.2,22.52-9.09L658.16,858.03z"/>
		<path class="st0" d="M689.77,806.2l1.15,7.29c4.86-7.81,11.39-8.96,17.79-8.96c6.53,0,12.8,2.56,16.25,6.01l-7.04,13.57    c-3.2-2.69-6.14-4.09-11.26-4.09c-8.19,0-15.74,4.35-15.74,16v33.27h-15.61V806.2H689.77z"/>
		<path class="st0" d="M811.22,806.2l-38.52,89.46h-17.15l11.77-27.39l-25.21-62.07h18.17l9.6,27.26l6.01,17.79l6.53-17.4    l11.52-27.64H811.22z"/>
		<path class="st0" d="M832.21,895.65V806.2h14.59l1.02,8.7c4.86-7.04,13.31-10.11,20.48-10.11c19.45,0,32.38,14.46,32.38,33.02    c0,18.43-11.65,33.02-31.87,33.02c-6.65,0-16.51-2.05-20.99-8.96v33.79H832.21z M885.07,837.81c0-9.85-6.65-17.92-17.92-17.92    c-11.26,0-17.92,8.06-17.92,17.92c0,9.85,7.29,17.92,17.92,17.92C877.77,855.72,885.07,847.66,885.07,837.81z"/>
		<path class="st0" d="M947.01,788.41v17.92h17.4v13.44h-17.53v27.26c0,6.01,3.33,8.96,8.19,8.96c2.43,0,5.25-0.77,7.55-1.92    l4.35,13.31c-4.48,1.79-8.19,2.56-12.93,2.69c-13.69,0.51-22.65-7.29-22.65-23.04v-27.26h-11.77v-13.44h11.77v-16.25    L947.01,788.41z"/>
		<path class="st0" d="M1051.57,837.81c0,18.17-12.41,32.89-32.89,32.89c-20.48,0-32.76-14.72-32.76-32.89    c0-18.04,12.54-32.89,32.63-32.89C1038.64,804.92,1051.57,819.76,1051.57,837.81z M1001.53,837.81c0,9.6,5.76,18.56,17.15,18.56    c11.39,0,17.15-8.96,17.15-18.56c0-9.47-6.65-18.68-17.15-18.68C1007.42,819.12,1001.53,828.34,1001.53,837.81z"/>
		<path class="st0" d="M1116.33,822.96c-4.48-4.22-9.6-5.63-15.61-5.63c-7.42,0-11.52,2.3-11.52,6.27c0,4.1,3.71,6.4,11.77,6.91    c11.9,0.77,27,3.46,27,20.22c0,11.13-9.09,20.73-27.13,20.73c-9.98,0-19.96-1.66-29.18-11.26l7.68-11.13    c4.48,4.99,14.72,8.7,21.76,8.83c5.89,0.13,11.39-2.94,11.39-7.55c0-4.35-3.58-6.14-12.54-6.65c-11.9-0.9-26.11-5.25-26.11-19.58    c0-14.59,15.1-19.71,26.62-19.71c9.85,0,17.28,1.92,24.57,8.32L1116.33,822.96z"/>
		<path class="st0" d="M1213.46,837.81c0,18.17-12.41,32.89-32.89,32.89c-20.48,0-32.76-14.72-32.76-32.89    c0-18.04,12.54-32.89,32.63-32.89C1200.54,804.92,1213.46,819.76,1213.46,837.81z M1163.42,837.81c0,9.6,5.76,18.56,17.15,18.56    s17.15-8.96,17.15-18.56c0-9.47-6.65-18.68-17.15-18.68C1169.31,819.12,1163.42,828.34,1163.42,837.81z"/>
		<path class="st0" d="M1242.13,869.29v-48.5h-11.77v-13.69h11.77v-4.22c0-16.89,11.39-24.7,24.06-24.7c5.5,0,11.26,1.79,16.38,5.12    l-5.76,11.65c-3.33-2.18-6.4-3.33-9.6-3.33c-5.38,0-9.47,3.58-9.47,11.26v4.22h18.56v13.69h-18.56v48.5H1242.13z"/>
		<path class="st0" d="M1323.4,788.41v17.92h17.4v13.44h-17.53v27.26c0,6.01,3.33,8.96,8.19,8.96c2.43,0,5.25-0.77,7.55-1.92    l4.35,13.31c-4.48,1.79-8.19,2.56-12.92,2.69c-13.69,0.51-22.65-7.29-22.65-23.04v-27.26h-11.77v-13.44h11.77v-16.25    L1323.4,788.41z"/>
	</g>
	<g>
		<path class="st1" d="M1222.48,440.91c0,9.57-0.53,18.54-1.55,27.83c-14.09,128.04-122.61,228.29-254.4,228.29    c-119.01,0-219.05-81.62-247.7-190.62h64.34c26.66,75,98.68,129.88,183.36,129.88c97.74,0,178.64-72.88,192.32-165.88h-138.21    c-10.2,18-30.6,31.68-54.11,31.68c-33.72,0-61.07-27.88-61.07-61.6c0-33.72,27.34-60.36,61.07-60.36    c22.63,0,42.39,12.28,52.94,31.28h201.22C1221.86,421.41,1222.48,430.6,1222.48,440.91z"/>
		<path class="st0" d="M966.53,245.92c83.34,0,154.43,52.49,182.07,126.49h64.69c-29.88-109-129.03-188.06-246.76-188.06    c-130.57,0-238.31,97.6-253.98,223.91c-1.3,10.44-1.97,21.76-1.97,32.55c0,9.1,0.48,18.59,1.4,27.59h8.13h0.02h94.01    c12.94,72,76.25,128.05,152.4,128.05c69.82,0,128.83-47.05,148.14-109.05h-49.31c-17.13,36-54.93,62.36-98.83,62.36    c-60,0-108.64-49.23-108.64-109.23s48.64-108.08,108.64-108.08c43.06,0,80.27,24.94,97.84,61.94h49.62    c-19.98-63-78.44-108.1-147.46-108.1c-74.76,0-137.15,52.1-151.64,123.1h-40.26c0.04-1,0.07-0.78,0.11-1.01    C789.95,316.21,870.03,245.92,966.53,245.92z"/>
	</g>
</g>
<g class="st2">
	<g class="st3">
		<path class="st0" d="M-1014.69,217.68c-9.21,9.09-21.12,13.31-34.04,13.31c-33.27,0-47.35-22.91-47.48-46.2    c-0.13-23.42,15.1-47.22,47.48-47.22c12.16,0,23.68,4.61,32.89,13.69l-11.26,10.88c-5.89-5.76-13.82-8.45-21.63-8.45    c-21.63,0-30.97,16.12-30.84,31.1c0.13,14.84,8.7,30.33,30.84,30.33c7.81,0,16.64-3.2,22.52-9.09L-1014.69,217.68z"/>
		<path class="st0" d="M-983.08,165.85l1.15,7.29c4.86-7.81,11.39-8.96,17.79-8.96c6.53,0,12.8,2.56,16.25,6.01l-7.04,13.57    c-3.2-2.69-6.14-4.09-11.26-4.09c-8.19,0-15.74,4.35-15.74,16v33.27h-15.61v-63.09H-983.08z"/>
		<path class="st0" d="M-861.63,165.85l-38.52,89.46h-17.15l11.77-27.39l-25.21-62.07h18.17l9.6,27.26l6.01,17.79l6.53-17.4    l11.52-27.64H-861.63z"/>
		<path class="st0" d="M-840.63,255.31v-89.46h14.59l1.02,8.7c4.86-7.04,13.31-10.11,20.48-10.11c19.45,0,32.38,14.46,32.38,33.02    c0,18.43-11.65,33.02-31.87,33.02c-6.65,0-16.51-2.05-20.99-8.96v33.79H-840.63z M-787.78,197.46c0-9.85-6.65-17.92-17.92-17.92    c-11.26,0-17.92,8.06-17.92,17.92c0,9.85,7.29,17.92,17.92,17.92C-795.08,215.38-787.78,207.31-787.78,197.46z"/>
		<path class="st0" d="M-725.84,148.06v17.92h17.4v13.44h-17.53v27.26c0,6.01,3.33,8.96,8.19,8.96c2.43,0,5.25-0.77,7.55-1.92    l4.35,13.31c-4.48,1.79-8.19,2.56-12.93,2.69c-13.69,0.51-22.65-7.29-22.65-23.04v-27.26h-11.77v-13.44h11.77v-16.25    L-725.84,148.06z"/>
		<path class="st0" d="M-621.28,197.46c0,18.17-12.41,32.89-32.89,32.89c-20.48,0-32.76-14.72-32.76-32.89    c0-18.04,12.54-32.89,32.63-32.89C-634.2,164.57-621.28,179.42-621.28,197.46z M-671.32,197.46c0,9.6,5.76,18.56,17.15,18.56    s17.15-8.96,17.15-18.56c0-9.47-6.65-18.68-17.15-18.68C-665.43,178.78-671.32,187.99-671.32,197.46z"/>
		<path class="st0" d="M-556.52,182.61c-4.48-4.22-9.6-5.63-15.61-5.63c-7.42,0-11.52,2.3-11.52,6.27c0,4.1,3.71,6.4,11.77,6.91    c11.9,0.77,27,3.46,27,20.22c0,11.13-9.09,20.73-27.13,20.73c-9.98,0-19.96-1.66-29.18-11.26l7.68-11.13    c4.48,4.99,14.72,8.7,21.76,8.83c5.89,0.13,11.39-2.94,11.39-7.55c0-4.35-3.58-6.14-12.54-6.65c-11.9-0.9-26.11-5.25-26.11-19.58    c0-14.59,15.1-19.71,26.62-19.71c9.85,0,17.28,1.92,24.57,8.32L-556.52,182.61z"/>
		<path class="st0" d="M-459.38,197.46c0,18.17-12.41,32.89-32.89,32.89c-20.48,0-32.76-14.72-32.76-32.89    c0-18.04,12.54-32.89,32.63-32.89C-472.31,164.57-459.38,179.42-459.38,197.46z M-509.42,197.46c0,9.6,5.76,18.56,17.15,18.56    s17.15-8.96,17.15-18.56c0-9.47-6.65-18.68-17.15-18.68C-503.54,178.78-509.42,187.99-509.42,197.46z"/>
		<path class="st0" d="M-430.71,228.94v-48.5h-11.77v-13.69h11.77v-4.22c0-16.89,11.39-24.7,24.06-24.7c5.5,0,11.26,1.79,16.38,5.12    l-5.76,11.65c-3.33-2.18-6.4-3.33-9.6-3.33c-5.38,0-9.47,3.58-9.47,11.26v4.22h18.56v13.69h-18.56v48.5H-430.71z"/>
		<path class="st0" d="M-349.45,148.06v17.92h17.4v13.44h-17.53v27.26c0,6.01,3.33,8.96,8.19,8.96c2.43,0,5.25-0.77,7.55-1.92    l4.35,13.31c-4.48,1.79-8.19,2.56-12.92,2.69c-13.69,0.51-22.65-7.29-22.65-23.04v-27.26h-11.77v-13.44h11.77v-16.25    L-349.45,148.06z"/>
	</g>
	<g class="st3">
		<path class="st1" d="M-450.37-199.44c0,9.57-0.53,18.54-1.55,27.83C-466.01-43.57-574.53,56.68-706.32,56.68    c-119.01,0-219.05-81.62-247.7-190.62h64.34c26.66,75,98.68,129.88,183.36,129.88c97.74,0,178.64-72.88,192.32-165.88h-138.21    c-10.2,18-30.6,31.68-54.11,31.68c-33.72,0-61.07-27.88-61.07-61.6c0-33.72,27.34-60.36,61.07-60.36    c22.63,0,42.39,12.28,52.94,31.28h201.22C-450.98-218.94-450.37-209.75-450.37-199.44z"/>
		<path class="st0" d="M-706.32-394.43c83.34,0,154.43,52.49,182.07,126.49h64.69C-489.44-376.94-588.59-456-706.32-456    c-130.57,0-238.31,97.6-253.98,223.91c-1.3,10.44-1.97,21.76-1.97,32.55c0,9.1,0.48,18.59,1.4,27.59h8.13h0.02h94.01    c12.94,72,76.25,128.05,152.4,128.05c69.82,0,128.83-47.05,148.14-109.05h-49.31c-17.13,36-54.93,62.36-98.83,62.36    c-60,0-108.64-49.23-108.64-109.23s48.64-108.08,108.64-108.08c43.06,0,80.27,24.94,97.84,61.94h49.62    c-19.98-63-78.44-108.1-147.46-108.1c-74.76,0-137.15,52.1-151.64,123.1h-40.26c0.04-1,0.07-0.78,0.11-1.01    C-882.9-324.14-802.82-394.43-706.32-394.43z"/>
	</g>
	<g class="st3">
		<path class="st1" d="M-1087.96,296.56l5.45-0.6c0.33,2.07,0.99,3.59,1.99,4.56c1,0.97,2.35,1.46,4.06,1.46    c1.8,0,3.16-0.43,4.08-1.29c0.91-0.86,1.37-1.87,1.37-3.03c0-0.74-0.19-1.37-0.58-1.89c-0.38-0.52-1.06-0.97-2.01-1.36    c-0.66-0.26-2.15-0.71-4.48-1.37c-3-0.84-5.11-1.88-6.32-3.1c-1.7-1.73-2.55-3.83-2.55-6.31c0-1.6,0.4-3.09,1.2-4.49    c0.8-1.39,1.95-2.45,3.46-3.18s3.32-1.09,5.46-1.09c3.48,0,6.1,0.86,7.86,2.59c1.76,1.73,2.68,4.03,2.77,6.91l-5.6,0.28    c-0.24-1.61-0.75-2.77-1.54-3.48c-0.79-0.71-1.97-1.06-3.55-1.06c-1.63,0-2.9,0.38-3.82,1.13c-0.59,0.49-0.89,1.13-0.89,1.95    c0,0.74,0.28,1.38,0.83,1.91c0.71,0.67,2.42,1.37,5.14,2.1c2.72,0.73,4.74,1.48,6.04,2.26c1.3,0.78,2.33,1.84,3.06,3.19    c0.74,1.35,1.11,3.01,1.11,5c0,1.8-0.44,3.48-1.32,5.05c-0.88,1.57-2.13,2.74-3.74,3.5c-1.61,0.76-3.62,1.15-6.03,1.15    c-3.5,0-6.2-0.92-8.07-2.75C-1086.48,302.74-1087.6,300.07-1087.96,296.56z"/>
		<path class="st1" d="M-1061.98,295.08c0-2,0.43-3.93,1.3-5.8c0.87-1.87,2.1-3.3,3.7-4.28c1.59-0.98,3.38-1.48,5.34-1.48    c3.04,0,5.53,1.12,7.47,3.35c1.94,2.23,2.91,5.06,2.91,8.47c0,3.44-0.98,6.29-2.94,8.55c-1.96,2.26-4.43,3.39-7.4,3.39    c-1.84,0-3.6-0.47-5.27-1.41c-1.67-0.94-2.94-2.32-3.81-4.14C-1061.55,299.91-1061.98,297.7-1061.98,295.08z M-1056.54,295.4    c0,2.26,0.47,3.98,1.42,5.18c0.95,1.2,2.11,1.8,3.5,1.8s2.55-0.6,3.49-1.8c0.94-1.2,1.41-2.94,1.41-5.22    c0-2.23-0.47-3.94-1.41-5.14c-0.94-1.2-2.1-1.8-3.49-1.8s-2.55,0.6-3.5,1.8C-1056.06,291.42-1056.54,293.15-1056.54,295.4z"/>
		<path class="st1" d="M-1039.42,284.04h2.95v-1.71c0-1.91,0.18-3.34,0.54-4.28c0.36-0.94,1.02-1.71,1.99-2.3    c0.96-0.59,2.18-0.89,3.66-0.89c1.51,0,2.99,0.26,4.44,0.77l-0.72,4.2c-0.84-0.23-1.66-0.34-2.44-0.34c-0.77,0-1.32,0.2-1.65,0.61    c-0.33,0.41-0.5,1.19-0.5,2.34v1.61h3.97v4.73h-3.97v18h-5.31v-18h-2.95V284.04z"/>
		<path class="st1" d="M-1014.99,284.04v4.79h-3.63V298c0,1.86,0.03,2.94,0.1,3.24s0.23,0.56,0.47,0.76c0.25,0.2,0.54,0.3,0.9,0.3    c0.49,0,1.2-0.19,2.14-0.58l0.45,4.67c-1.24,0.6-2.63,0.9-4.2,0.9c-0.96,0-1.82-0.18-2.59-0.55s-1.33-0.83-1.69-1.41    c-0.36-0.58-0.61-1.36-0.75-2.34c-0.11-0.7-0.17-2.11-0.17-4.24v-9.91h-2.44v-4.79h2.44v-4.52l5.33-3.51v8.03H-1014.99z"/>
		<path class="st1" d="M-1007.56,306.77l-6.35-22.73h5.16l3.76,14.9l3.46-14.9h5.12l3.35,14.9l3.84-14.9h5.24l-6.45,22.73h-5.11    l-3.46-14.62l-3.4,14.62H-1007.56z"/>
		<path class="st1" d="M-977.21,290.97l-4.82-0.98c0.54-2.2,1.48-3.82,2.8-4.88c1.32-1.06,3.29-1.58,5.9-1.58    c2.37,0,4.13,0.32,5.29,0.95c1.16,0.64,1.98,1.44,2.45,2.42c0.47,0.98,0.71,2.77,0.71,5.38l-0.06,7.02c0,2,0.09,3.47,0.26,4.42    c0.17,0.95,0.49,1.97,0.96,3.05h-5.26c-0.14-0.4-0.31-0.99-0.51-1.78c-0.09-0.36-0.15-0.59-0.19-0.71c-0.91,1-1.88,1.75-2.91,2.25    s-2.14,0.75-3.31,0.75c-2.07,0-3.7-0.63-4.89-1.91c-1.19-1.27-1.79-2.88-1.79-4.82c0-1.28,0.27-2.43,0.81-3.44s1.3-1.78,2.28-2.31    c0.98-0.54,2.39-1,4.23-1.4c2.48-0.53,4.2-1.02,5.16-1.48v-0.6c0-1.16-0.25-1.98-0.76-2.47c-0.5-0.49-1.46-0.74-2.85-0.74    c-0.95,0-1.68,0.21-2.21,0.63C-976.46,289.18-976.89,289.92-977.21,290.97z M-970.1,295.86c-0.68,0.26-1.76,0.56-3.23,0.92    c-1.48,0.36-2.44,0.71-2.89,1.05c-0.69,0.56-1.04,1.26-1.04,2.12c0,0.84,0.28,1.57,0.83,2.18c0.55,0.61,1.26,0.92,2.12,0.92    c0.96,0,1.87-0.36,2.74-1.07c0.64-0.54,1.06-1.21,1.27-1.99c0.14-0.51,0.21-1.49,0.21-2.93V295.86z"/>
		<path class="st1" d="M-954.56,306.77h-5.31v-22.73h4.94v3.23c0.84-1.53,1.6-2.53,2.28-3.02c0.67-0.48,1.44-0.73,2.3-0.73    c1.21,0,2.38,0.38,3.5,1.13l-1.65,5.24c-0.9-0.66-1.73-0.98-2.5-0.98c-0.74,0-1.37,0.23-1.89,0.7c-0.52,0.46-0.92,1.3-1.22,2.52    c-0.3,1.21-0.44,3.75-0.44,7.62V306.77z"/>
		<path class="st1" d="M-932.95,299.54l5.29,1.01c-0.68,2.2-1.76,3.87-3.22,5.02c-1.47,1.15-3.31,1.72-5.51,1.72    c-3.49,0-6.08-1.29-7.75-3.87c-1.32-2.07-1.99-4.68-1.99-7.83c0-3.77,0.87-6.72,2.61-8.85c1.74-2.13,3.94-3.2,6.6-3.2    c2.99,0,5.34,1.12,7.07,3.35c1.73,2.23,2.55,5.66,2.48,10.26h-13.31c0.04,1.78,0.47,3.17,1.29,4.16c0.82,0.99,1.84,1.49,3.06,1.49    c0.83,0,1.53-0.26,2.1-0.77S-933.24,300.68-932.95,299.54z M-932.64,293.46c-0.04-1.74-0.44-3.06-1.19-3.97s-1.68-1.36-2.76-1.36    c-1.16,0-2.12,0.48-2.87,1.43c-0.76,0.96-1.13,2.25-1.12,3.9H-932.64z"/>
		<path class="st1" d="M-913.66,296.56l5.45-0.6c0.33,2.07,0.99,3.59,1.99,4.56c1,0.97,2.35,1.46,4.06,1.46    c1.8,0,3.16-0.43,4.08-1.29c0.91-0.86,1.37-1.87,1.37-3.03c0-0.74-0.19-1.37-0.58-1.89c-0.38-0.52-1.06-0.97-2.01-1.36    c-0.66-0.26-2.15-0.71-4.48-1.37c-3-0.84-5.11-1.88-6.32-3.1c-1.7-1.73-2.55-3.83-2.55-6.31c0-1.6,0.4-3.09,1.2-4.49    c0.8-1.39,1.95-2.45,3.46-3.18s3.32-1.09,5.46-1.09c3.48,0,6.1,0.86,7.86,2.59c1.76,1.73,2.68,4.03,2.77,6.91l-5.6,0.28    c-0.24-1.61-0.75-2.77-1.54-3.48c-0.79-0.71-1.97-1.06-3.55-1.06c-1.63,0-2.9,0.38-3.82,1.13c-0.59,0.49-0.89,1.13-0.89,1.95    c0,0.74,0.28,1.38,0.83,1.91c0.71,0.67,2.42,1.37,5.14,2.1c2.72,0.73,4.74,1.48,6.04,2.26c1.3,0.78,2.33,1.84,3.06,3.19    c0.74,1.35,1.11,3.01,1.11,5c0,1.8-0.44,3.48-1.32,5.05c-0.88,1.57-2.13,2.74-3.74,3.5c-1.61,0.76-3.62,1.15-6.03,1.15    c-3.5,0-6.2-0.92-8.07-2.75C-912.17,302.74-913.29,300.07-913.66,296.56z"/>
		<path class="st1" d="M-873.23,306.77v-3.4c-0.73,1.21-1.69,2.17-2.88,2.87c-1.19,0.7-2.45,1.05-3.77,1.05    c-1.35,0-2.56-0.33-3.63-1.01s-1.85-1.61-2.33-2.83c-0.48-1.21-0.72-2.89-0.72-5.03v-14.38h5.31v10.45c0,3.2,0.1,5.16,0.29,5.88    c0.2,0.72,0.55,1.29,1.07,1.71c0.52,0.42,1.17,0.63,1.97,0.63c0.91,0,1.72-0.28,2.44-0.85c0.72-0.56,1.21-1.26,1.48-2.1    c0.26-0.83,0.4-2.88,0.4-6.13v-9.59h5.31v22.73H-873.23z"/>
		<path class="st1" d="M-862.94,284.04h4.95v3.34c0.64-1.14,1.51-2.07,2.61-2.78s2.31-1.07,3.65-1.07c2.33,0,4.31,1.04,5.94,3.1    c1.63,2.07,2.44,4.95,2.44,8.65c0,3.8-0.82,6.75-2.46,8.85c-1.64,2.11-3.62,3.16-5.96,3.16c-1.11,0-2.11-0.25-3.02-0.75    s-1.85-1.36-2.85-2.57v11.45h-5.31V284.04z M-857.69,295.02c0,2.55,0.45,4.44,1.34,5.66c0.9,1.22,1.99,1.83,3.27,1.83    c1.24,0,2.26-0.56,3.08-1.68c0.82-1.12,1.23-2.96,1.23-5.51c0-2.38-0.42-4.15-1.27-5.31c-0.84-1.16-1.89-1.73-3.14-1.73    c-1.3,0-2.38,0.57-3.23,1.7S-857.69,292.79-857.69,295.02z"/>
		<path class="st1" d="M-839.29,284.04h4.95v3.34c0.64-1.14,1.51-2.07,2.61-2.78s2.31-1.07,3.65-1.07c2.33,0,4.31,1.04,5.94,3.1    c1.63,2.07,2.44,4.95,2.44,8.65c0,3.8-0.82,6.75-2.46,8.85c-1.64,2.11-3.62,3.16-5.96,3.16c-1.11,0-2.11-0.25-3.02-0.75    s-1.85-1.36-2.85-2.57v11.45h-5.31V284.04z M-834.03,295.02c0,2.55,0.45,4.44,1.34,5.66c0.9,1.22,1.99,1.83,3.27,1.83    c1.24,0,2.26-0.56,3.08-1.68c0.82-1.12,1.23-2.96,1.23-5.51c0-2.38-0.42-4.15-1.27-5.31c-0.84-1.16-1.89-1.73-3.14-1.73    c-1.3,0-2.38,0.57-3.23,1.7S-834.03,292.79-834.03,295.02z"/>
		<path class="st1" d="M-815.48,306.77v-31.38h5.31v31.38H-815.48z"/>
		<path class="st1" d="M-807.24,284.04h5.65l4.8,16.14l4.69-16.14h5.5l-7.09,21.88l-1.27,3.96c-0.47,1.33-0.91,2.34-1.33,3.04    s-0.91,1.27-1.46,1.7c-0.55,0.43-1.22,0.77-2.02,1.02c-0.8,0.24-1.71,0.36-2.71,0.36c-1.02,0-2.02-0.12-3.01-0.36l-0.47-4.71    c0.83,0.19,1.58,0.28,2.25,0.28c1.24,0,2.15-0.41,2.74-1.23c0.59-0.82,1.05-1.87,1.36-3.14L-807.24,284.04z"/>
		<path class="st1" d="M-754.65,295.23l5.43,1.95c-0.83,3.42-2.22,5.97-4.15,7.63c-1.94,1.66-4.39,2.49-7.37,2.49    c-3.68,0-6.71-1.42-9.08-4.27c-2.37-2.85-3.56-6.74-3.56-11.68c0-5.22,1.19-9.28,3.57-12.17c2.38-2.89,5.51-4.33,9.4-4.33    c3.39,0,6.15,1.13,8.26,3.4c1.26,1.34,2.21,3.27,2.84,5.78l-5.54,1.5c-0.33-1.63-1.01-2.91-2.05-3.85    c-1.04-0.94-2.3-1.41-3.79-1.41c-2.06,0-3.72,0.83-5,2.5c-1.28,1.67-1.92,4.37-1.92,8.11c0,3.97,0.63,6.79,1.89,8.48    c1.26,1.68,2.9,2.53,4.92,2.53c1.49,0,2.77-0.54,3.84-1.61C-755.89,299.22-755.12,297.53-754.65,295.23z"/>
		<path class="st1" d="M-739.16,275.39v11.54c1.71-2.27,3.76-3.4,6.15-3.4c1.22,0,2.33,0.26,3.31,0.77s1.72,1.17,2.22,1.97    c0.5,0.8,0.84,1.68,1.02,2.65c0.18,0.97,0.27,2.48,0.27,4.52v13.34h-5.31v-12.01c0-2.38-0.1-3.9-0.3-4.54    c-0.2-0.64-0.56-1.15-1.07-1.53c-0.51-0.38-1.15-0.57-1.92-0.57c-0.88,0-1.67,0.24-2.36,0.73s-1.2,1.22-1.52,2.19    c-0.32,0.98-0.48,2.42-0.48,4.33v11.39h-5.31v-31.38H-739.16z"/>
		<path class="st1" d="M-716.83,290.97l-4.82-0.98c0.54-2.2,1.48-3.82,2.8-4.88c1.32-1.06,3.29-1.58,5.9-1.58    c2.37,0,4.13,0.32,5.29,0.95c1.16,0.64,1.98,1.44,2.45,2.42c0.47,0.98,0.71,2.77,0.71,5.38l-0.06,7.02c0,2,0.09,3.47,0.26,4.42    c0.17,0.95,0.49,1.97,0.96,3.05h-5.26c-0.14-0.4-0.31-0.99-0.51-1.78c-0.09-0.36-0.15-0.59-0.19-0.71c-0.91,1-1.88,1.75-2.91,2.25    s-2.14,0.75-3.31,0.75c-2.07,0-3.7-0.63-4.89-1.91c-1.19-1.27-1.79-2.88-1.79-4.82c0-1.28,0.27-2.43,0.81-3.44s1.3-1.78,2.28-2.31    c0.98-0.54,2.39-1,4.23-1.4c2.48-0.53,4.2-1.02,5.16-1.48v-0.6c0-1.16-0.25-1.98-0.76-2.47c-0.5-0.49-1.46-0.74-2.85-0.74    c-0.95,0-1.68,0.21-2.21,0.63C-716.08,289.18-716.51,289.92-716.83,290.97z M-709.72,295.86c-0.68,0.26-1.76,0.56-3.23,0.92    c-1.48,0.36-2.44,0.71-2.89,1.05c-0.69,0.56-1.04,1.26-1.04,2.12c0,0.84,0.28,1.57,0.83,2.18c0.55,0.61,1.26,0.92,2.12,0.92    c0.96,0,1.87-0.36,2.74-1.07c0.64-0.54,1.06-1.21,1.27-1.99c0.14-0.51,0.21-1.49,0.21-2.93V295.86z"/>
		<path class="st1" d="M-699.27,280.96v-5.57h5.31v5.57H-699.27z M-699.27,306.77v-22.73h5.31v22.73H-699.27z"/>
		<path class="st1" d="M-670.24,306.77h-5.31v-11.6c0-2.45-0.11-4.04-0.34-4.76s-0.6-1.28-1.11-1.68c-0.51-0.4-1.13-0.6-1.84-0.6    c-0.92,0-1.75,0.29-2.48,0.86c-0.73,0.57-1.23,1.33-1.5,2.27c-0.27,0.94-0.41,2.68-0.41,5.22v10.3h-5.31v-22.73h4.94v3.34    c1.75-2.57,3.96-3.85,6.62-3.85c1.17,0,2.24,0.24,3.21,0.72c0.97,0.48,1.71,1.09,2.2,1.83c0.5,0.74,0.84,1.58,1.04,2.53    c0.2,0.94,0.29,2.29,0.29,4.05V306.77z"/>
		<path class="st1" d="M-653.9,306.77v-31.12h5.6v25.84h13.92v5.29H-653.9z"/>
		<path class="st1" d="M-630.44,280.96v-5.57h5.31v5.57H-630.44z M-630.44,306.77v-22.73h5.31v22.73H-630.44z"/>
		<path class="st1" d="M-622,284.04h2.95v-1.71c0-1.91,0.18-3.34,0.54-4.28c0.36-0.94,1.02-1.71,1.98-2.3    c0.96-0.59,2.19-0.89,3.66-0.89c1.51,0,2.99,0.26,4.44,0.77l-0.72,4.2c-0.84-0.23-1.66-0.34-2.44-0.34c-0.77,0-1.32,0.2-1.65,0.61    c-0.33,0.41-0.5,1.19-0.5,2.34v1.61h3.97v4.73h-3.97v18h-5.31v-18H-622V284.04z"/>
		<path class="st1" d="M-595.15,299.54l5.29,1.01c-0.68,2.2-1.75,3.87-3.22,5.02c-1.47,1.15-3.31,1.72-5.51,1.72    c-3.49,0-6.08-1.29-7.75-3.87c-1.32-2.07-1.99-4.68-1.99-7.83c0-3.77,0.87-6.72,2.61-8.85c1.74-2.13,3.94-3.2,6.6-3.2    c2.99,0,5.34,1.12,7.07,3.35c1.73,2.23,2.55,5.66,2.48,10.26h-13.31c0.04,1.78,0.47,3.17,1.29,4.16c0.82,0.99,1.84,1.49,3.06,1.49    c0.83,0,1.53-0.26,2.1-0.77S-595.44,300.68-595.15,299.54z M-594.85,293.46c-0.04-1.74-0.43-3.06-1.19-3.97    c-0.76-0.91-1.68-1.36-2.76-1.36c-1.16,0-2.12,0.48-2.88,1.43c-0.76,0.96-1.13,2.25-1.12,3.9H-594.85z"/>
		<path class="st1" d="M-567.73,290.76l-5.24,1.07c-0.18-1.18-0.58-2.08-1.2-2.68s-1.43-0.9-2.43-0.9c-1.32,0-2.38,0.52-3.17,1.55    c-0.79,1.04-1.18,2.77-1.18,5.19c0,2.7,0.4,4.6,1.2,5.72c0.8,1.11,1.88,1.67,3.22,1.67c1.01,0,1.83-0.32,2.48-0.97    c0.64-0.65,1.1-1.77,1.36-3.35l5.22,1.01c-0.54,2.71-1.58,4.76-3.12,6.14c-1.54,1.38-3.6,2.08-6.18,2.08    c-2.94,0-5.28-1.05-7.02-3.15c-1.75-2.1-2.62-5-2.62-8.71c0-3.75,0.88-6.67,2.63-8.77c1.75-2.09,4.12-3.14,7.11-3.14    c2.45,0,4.39,0.6,5.83,1.79C-569.4,286.5-568.36,288.32-567.73,290.76z"/>
		<path class="st1" d="M-566.22,284.04h5.65l4.8,16.14l4.69-16.14h5.5l-7.09,21.88l-1.27,3.96c-0.47,1.33-0.91,2.34-1.33,3.04    c-0.42,0.7-0.91,1.27-1.46,1.7c-0.55,0.43-1.22,0.77-2.02,1.02c-0.8,0.24-1.71,0.36-2.71,0.36c-1.02,0-2.02-0.12-3.01-0.36    l-0.47-4.71c0.83,0.19,1.58,0.28,2.25,0.28c1.24,0,2.15-0.41,2.74-1.23c0.59-0.82,1.05-1.87,1.36-3.14L-566.22,284.04z"/>
		<path class="st1" d="M-524.66,290.76l-5.24,1.07c-0.18-1.18-0.58-2.08-1.2-2.68s-1.43-0.9-2.43-0.9c-1.32,0-2.38,0.52-3.17,1.55    c-0.79,1.04-1.18,2.77-1.18,5.19c0,2.7,0.4,4.6,1.2,5.72c0.8,1.11,1.88,1.67,3.22,1.67c1.01,0,1.83-0.32,2.48-0.97    c0.64-0.65,1.1-1.77,1.36-3.35l5.22,1.01c-0.54,2.71-1.58,4.76-3.12,6.14c-1.54,1.38-3.6,2.08-6.18,2.08    c-2.94,0-5.28-1.05-7.02-3.15c-1.75-2.1-2.62-5-2.62-8.71c0-3.75,0.88-6.67,2.63-8.77c1.75-2.09,4.12-3.14,7.11-3.14    c2.45,0,4.39,0.6,5.83,1.79C-526.33,286.5-525.29,288.32-524.66,290.76z"/>
		<path class="st1" d="M-520.63,306.77v-31.38h5.31v31.38H-520.63z"/>
		<path class="st1" d="M-498.24,299.54l5.29,1.01c-0.68,2.2-1.75,3.87-3.22,5.02c-1.47,1.15-3.31,1.72-5.51,1.72    c-3.49,0-6.08-1.29-7.75-3.87c-1.32-2.07-1.99-4.68-1.99-7.83c0-3.77,0.87-6.72,2.61-8.85c1.74-2.13,3.94-3.2,6.6-3.2    c2.99,0,5.34,1.12,7.07,3.35c1.73,2.23,2.55,5.66,2.48,10.26h-13.31c0.04,1.78,0.47,3.17,1.29,4.16c0.82,0.99,1.84,1.49,3.06,1.49    c0.83,0,1.53-0.26,2.1-0.77S-498.53,300.68-498.24,299.54z M-497.94,293.46c-0.04-1.74-0.43-3.06-1.19-3.97    c-0.76-0.91-1.68-1.36-2.76-1.36c-1.16,0-2.12,0.48-2.88,1.43c-0.76,0.96-1.13,2.25-1.12,3.9H-497.94z"/>
		<path class="st1" d="M-477.54,306.77v-31.38h8.98c3.4,0,5.62,0.16,6.66,0.47c1.59,0.47,2.92,1.5,3.99,3.07s1.61,3.61,1.61,6.11    c0,1.93-0.31,3.55-0.93,4.86c-0.62,1.31-1.4,2.34-2.35,3.09c-0.95,0.75-1.92,1.25-2.9,1.49c-1.34,0.3-3.27,0.45-5.8,0.45h-3.65    v11.84H-477.54z M-471.94,280.7v8.91h3.06c2.21,0,3.68-0.16,4.42-0.49c0.74-0.33,1.33-0.84,1.75-1.54    c0.42-0.7,0.63-1.51,0.63-2.44c0-1.14-0.3-2.08-0.89-2.83c-0.59-0.74-1.34-1.21-2.25-1.39c-0.67-0.14-2.01-0.21-4.03-0.21H-471.94    z"/>
		<path class="st1" d="M-451.74,306.77v-31.38h5.31v31.38H-451.74z"/>
		<path class="st1" d="M-437.01,290.97l-4.82-0.98c0.54-2.2,1.47-3.82,2.8-4.88c1.32-1.06,3.29-1.58,5.9-1.58    c2.37,0,4.13,0.32,5.29,0.95c1.16,0.64,1.98,1.44,2.45,2.42s0.71,2.77,0.71,5.38l-0.06,7.02c0,2,0.08,3.47,0.26,4.42    c0.17,0.95,0.49,1.97,0.95,3.05h-5.26c-0.14-0.4-0.31-0.99-0.51-1.78c-0.09-0.36-0.15-0.59-0.19-0.71c-0.91,1-1.88,1.75-2.91,2.25    c-1.03,0.5-2.14,0.75-3.31,0.75c-2.07,0-3.7-0.63-4.89-1.91c-1.19-1.27-1.79-2.88-1.79-4.82c0-1.28,0.27-2.43,0.81-3.44    s1.3-1.78,2.28-2.31c0.98-0.54,2.39-1,4.23-1.4c2.48-0.53,4.2-1.02,5.16-1.48v-0.6c0-1.16-0.25-1.98-0.76-2.47    c-0.5-0.49-1.46-0.74-2.86-0.74c-0.95,0-1.68,0.21-2.21,0.63C-436.26,289.18-436.69,289.92-437.01,290.97z M-429.91,295.86    c-0.68,0.26-1.76,0.56-3.23,0.92c-1.47,0.36-2.44,0.71-2.89,1.05c-0.69,0.56-1.04,1.26-1.04,2.12c0,0.84,0.28,1.57,0.83,2.18    c0.55,0.61,1.26,0.92,2.12,0.92c0.96,0,1.87-0.36,2.74-1.07c0.64-0.54,1.06-1.21,1.27-1.99c0.14-0.51,0.21-1.49,0.21-2.93V295.86z    "/>
		<path class="st1" d="M-410.24,284.04v4.79h-3.63V298c0,1.86,0.04,2.94,0.1,3.24s0.23,0.56,0.47,0.76s0.54,0.3,0.9,0.3    c0.49,0,1.2-0.19,2.14-0.58l0.45,4.67c-1.24,0.6-2.64,0.9-4.2,0.9c-0.96,0-1.82-0.18-2.59-0.55s-1.33-0.83-1.69-1.41    c-0.36-0.58-0.61-1.36-0.75-2.34c-0.11-0.7-0.17-2.11-0.17-4.24v-9.91h-2.44v-4.79h2.44v-4.52l5.33-3.51v8.03H-410.24z"/>
		<path class="st1" d="M-408.88,284.04h2.95v-1.71c0-1.91,0.18-3.34,0.54-4.28c0.36-0.94,1.02-1.71,1.99-2.3    c0.96-0.59,2.18-0.89,3.66-0.89c1.51,0,2.99,0.26,4.44,0.77l-0.72,4.2c-0.84-0.23-1.66-0.34-2.44-0.34c-0.77,0-1.32,0.2-1.66,0.61    c-0.33,0.41-0.5,1.19-0.5,2.34v1.61h3.97v4.73h-3.97v18h-5.31v-18h-2.95V284.04z"/>
		<path class="st1" d="M-394.88,295.08c0-2,0.43-3.93,1.3-5.8c0.87-1.87,2.1-3.3,3.7-4.28c1.59-0.98,3.38-1.48,5.34-1.48    c3.04,0,5.53,1.12,7.47,3.35c1.94,2.23,2.91,5.06,2.91,8.47c0,3.44-0.98,6.29-2.94,8.55c-1.96,2.26-4.43,3.39-7.4,3.39    c-1.84,0-3.6-0.47-5.27-1.41c-1.67-0.94-2.94-2.32-3.81-4.14S-394.88,297.7-394.88,295.08z M-389.44,295.4    c0,2.26,0.47,3.98,1.42,5.18c0.95,1.2,2.11,1.8,3.5,1.8s2.55-0.6,3.49-1.8c0.94-1.2,1.41-2.94,1.41-5.22    c0-2.23-0.47-3.94-1.41-5.14c-0.94-1.2-2.1-1.8-3.49-1.8s-2.55,0.6-3.5,1.8C-388.97,291.42-389.44,293.15-389.44,295.4z"/>
		<path class="st1" d="M-364.91,306.77h-5.31v-22.73h4.94v3.23c0.84-1.53,1.6-2.53,2.28-3.02c0.67-0.48,1.44-0.73,2.3-0.73    c1.21,0,2.38,0.38,3.5,1.13l-1.65,5.24c-0.9-0.66-1.73-0.98-2.5-0.98c-0.74,0-1.37,0.23-1.89,0.7s-0.92,1.3-1.22,2.52    s-0.44,3.75-0.44,7.62V306.77z"/>
		<path class="st1" d="M-355.33,284.04h4.9v3.1c1.75-2.41,3.84-3.62,6.26-3.62c1.29,0,2.4,0.3,3.35,0.9c0.95,0.6,1.72,1.5,2.33,2.72    c0.88-1.21,1.83-2.12,2.86-2.72c1.02-0.6,2.11-0.9,3.27-0.9c1.48,0,2.72,0.34,3.74,1.02c1.02,0.68,1.78,1.67,2.29,2.99    c0.37,0.97,0.55,2.54,0.55,4.71v14.54h-5.31v-12.99c0-2.25-0.18-3.71-0.55-4.37c-0.49-0.86-1.25-1.28-2.27-1.28    c-0.74,0-1.44,0.26-2.1,0.77s-1.13,1.27-1.42,2.26c-0.29,0.99-0.43,2.56-0.43,4.7v10.92h-5.31v-12.46c0-2.21-0.09-3.64-0.28-4.28    c-0.19-0.64-0.48-1.12-0.88-1.43c-0.4-0.31-0.94-0.47-1.62-0.47c-0.82,0-1.56,0.25-2.21,0.75c-0.66,0.5-1.12,1.22-1.41,2.16    c-0.28,0.94-0.42,2.5-0.42,4.69v11.05h-5.31V284.04z"/>
	</g>
</g>
</svg>
